<mxfile host="app.diagrams.net" agent="Mozilla/5.0 (Windows NT 6.1; Win64; x64) AppleWebKit/537.36 (KHTML, like Gecko) Chrome/109.0.0.0 Safari/537.36" version="24.7.17">
  <diagram name="Página-1" id="UDlIcOMqEKs8r0cURi6u">
    <mxGraphModel grid="1" page="1" gridSize="10" guides="1" tooltips="1" connect="1" arrows="1" fold="1" pageScale="1" pageWidth="827" pageHeight="1169" math="0" shadow="0">
      <root>
        <mxCell id="0" />
        <mxCell id="1" parent="0" />
        <mxCell id="G6aGoi_SDcfZqB_u-QsE-4" value="&lt;font style=&quot;vertical-align: inherit;&quot;&gt;&lt;font style=&quot;vertical-align: inherit;&quot;&gt;&lt;b&gt;MÉDICO&lt;/b&gt;&lt;/font&gt;&lt;/font&gt;" style="rounded=0;whiteSpace=wrap;html=1;fillColor=#FFFF00;strokeColor=#82b366;" vertex="1" parent="1">
          <mxGeometry x="-740" y="520" width="120" height="60" as="geometry" />
        </mxCell>
        <mxCell id="G6aGoi_SDcfZqB_u-QsE-5" value="&lt;font style=&quot;vertical-align: inherit;&quot;&gt;&lt;font style=&quot;vertical-align: inherit;&quot;&gt;&lt;b&gt;BEBÊ_MÉDICO&lt;/b&gt;&lt;/font&gt;&lt;/font&gt;" style="shape=rhombus;perimeter=rhombusPerimeter;whiteSpace=wrap;html=1;align=center;fillColor=#000000;strokeColor=#82b366;fontColor=#FFFFFF;" vertex="1" parent="1">
          <mxGeometry x="-740" y="370" width="120" height="60" as="geometry" />
        </mxCell>
        <mxCell id="G6aGoi_SDcfZqB_u-QsE-6" value="&lt;font style=&quot;vertical-align: inherit;&quot;&gt;&lt;font style=&quot;vertical-align: inherit;&quot;&gt;&lt;b&gt;BEBÊ&lt;/b&gt;&lt;/font&gt;&lt;/font&gt;" style="rounded=0;whiteSpace=wrap;html=1;fillColor=#00FF00;strokeColor=#82b366;" vertex="1" parent="1">
          <mxGeometry x="-740" y="170" width="120" height="60" as="geometry" />
        </mxCell>
        <mxCell id="G6aGoi_SDcfZqB_u-QsE-7" value="&lt;font style=&quot;vertical-align: inherit;&quot;&gt;&lt;font style=&quot;vertical-align: inherit;&quot;&gt;&lt;b&gt;BEBÊ_MÃE&lt;/b&gt;&lt;/font&gt;&lt;/font&gt;" style="shape=rhombus;perimeter=rhombusPerimeter;whiteSpace=wrap;html=1;align=center;fillColor=#000000;strokeColor=#82b366;fontColor=#FFFFFF;" vertex="1" parent="1">
          <mxGeometry x="-520" y="170" width="120" height="60" as="geometry" />
        </mxCell>
        <mxCell id="G6aGoi_SDcfZqB_u-QsE-8" value="&lt;font style=&quot;vertical-align: inherit;&quot;&gt;&lt;font style=&quot;vertical-align: inherit;&quot;&gt;&lt;b&gt;MÃE&lt;/b&gt;&lt;/font&gt;&lt;/font&gt;" style="rounded=0;whiteSpace=wrap;html=1;fillColor=#00FFFF;strokeColor=#00FFFF;" vertex="1" parent="1">
          <mxGeometry x="-290" y="170" width="120" height="60" as="geometry" />
        </mxCell>
        <mxCell id="G6aGoi_SDcfZqB_u-QsE-12" value="" style="endArrow=none;html=1;rounded=0;exitX=0.5;exitY=0;exitDx=0;exitDy=0;" edge="1" parent="1" source="G6aGoi_SDcfZqB_u-QsE-4" target="G6aGoi_SDcfZqB_u-QsE-5">
          <mxGeometry width="50" height="50" relative="1" as="geometry">
            <mxPoint x="-710" y="510" as="sourcePoint" />
            <mxPoint x="-660" y="460" as="targetPoint" />
          </mxGeometry>
        </mxCell>
        <mxCell id="G6aGoi_SDcfZqB_u-QsE-13" value="" style="endArrow=none;html=1;rounded=0;exitX=0.5;exitY=0;exitDx=0;exitDy=0;" edge="1" parent="1" source="G6aGoi_SDcfZqB_u-QsE-5" target="G6aGoi_SDcfZqB_u-QsE-6">
          <mxGeometry width="50" height="50" relative="1" as="geometry">
            <mxPoint x="-710" y="340" as="sourcePoint" />
            <mxPoint x="-660" y="290" as="targetPoint" />
          </mxGeometry>
        </mxCell>
        <mxCell id="G6aGoi_SDcfZqB_u-QsE-14" value="" style="endArrow=none;html=1;rounded=0;entryX=0;entryY=0.5;entryDx=0;entryDy=0;" edge="1" parent="1" source="G6aGoi_SDcfZqB_u-QsE-6" target="G6aGoi_SDcfZqB_u-QsE-7">
          <mxGeometry width="50" height="50" relative="1" as="geometry">
            <mxPoint x="-590" y="230" as="sourcePoint" />
            <mxPoint x="-540" y="180" as="targetPoint" />
          </mxGeometry>
        </mxCell>
        <mxCell id="G6aGoi_SDcfZqB_u-QsE-15" value="" style="endArrow=none;html=1;rounded=0;" edge="1" parent="1" source="G6aGoi_SDcfZqB_u-QsE-7" target="G6aGoi_SDcfZqB_u-QsE-8">
          <mxGeometry width="50" height="50" relative="1" as="geometry">
            <mxPoint x="-380" y="230" as="sourcePoint" />
            <mxPoint x="-330" y="180" as="targetPoint" />
          </mxGeometry>
        </mxCell>
        <mxCell id="G6aGoi_SDcfZqB_u-QsE-16" value="&lt;b&gt;(N,N)&lt;/b&gt;" style="rounded=0;whiteSpace=wrap;html=1;fillColor=#00FF00;strokeColor=#82b366;" vertex="1" parent="1">
          <mxGeometry x="-750" y="340" width="50" height="30" as="geometry" />
        </mxCell>
        <mxCell id="G6aGoi_SDcfZqB_u-QsE-17" value="&lt;b&gt;(1,N)&lt;/b&gt;" style="rounded=0;whiteSpace=wrap;html=1;fillColor=#00FFFF;strokeColor=#82b366;" vertex="1" parent="1">
          <mxGeometry x="-610" y="210" width="50" height="30" as="geometry" />
        </mxCell>
        <mxCell id="G6aGoi_SDcfZqB_u-QsE-18" value="&lt;b&gt;(N , N)&lt;/b&gt;" style="rounded=0;whiteSpace=wrap;html=1;direction=south;fillColor=#FFFF00;strokeColor=#82b366;" vertex="1" parent="1">
          <mxGeometry x="-670" y="240" width="50" height="30" as="geometry" />
        </mxCell>
        <mxCell id="G6aGoi_SDcfZqB_u-QsE-21" value="&lt;b&gt;(1,1)&lt;/b&gt;" style="rounded=0;whiteSpace=wrap;html=1;fillColor=#00FF00;" vertex="1" parent="1">
          <mxGeometry x="-350" y="140" width="50" height="30" as="geometry" />
        </mxCell>
        <mxCell id="G6aGoi_SDcfZqB_u-QsE-23" value="" style="endArrow=classic;html=1;rounded=0;" edge="1" parent="1">
          <mxGeometry width="50" height="50" relative="1" as="geometry">
            <mxPoint x="-610" y="170" as="sourcePoint" />
            <mxPoint x="-560" y="170" as="targetPoint" />
          </mxGeometry>
        </mxCell>
        <mxCell id="G6aGoi_SDcfZqB_u-QsE-24" value="" style="endArrow=classic;html=1;rounded=0;" edge="1" parent="1">
          <mxGeometry width="50" height="50" relative="1" as="geometry">
            <mxPoint x="-300" y="224.5" as="sourcePoint" />
            <mxPoint x="-360" y="224.5" as="targetPoint" />
            <Array as="points">
              <mxPoint x="-320" y="224.5" />
            </Array>
          </mxGeometry>
        </mxCell>
        <mxCell id="G6aGoi_SDcfZqB_u-QsE-25" value="" style="endArrow=classic;html=1;rounded=0;" edge="1" parent="1">
          <mxGeometry width="50" height="50" relative="1" as="geometry">
            <mxPoint x="-720" y="240" as="sourcePoint" />
            <mxPoint x="-720" y="290" as="targetPoint" />
          </mxGeometry>
        </mxCell>
        <mxCell id="G6aGoi_SDcfZqB_u-QsE-26" value="" style="endArrow=classic;html=1;rounded=0;" edge="1" parent="1">
          <mxGeometry width="50" height="50" relative="1" as="geometry">
            <mxPoint x="-640" y="510" as="sourcePoint" />
            <mxPoint x="-640" y="450" as="targetPoint" />
          </mxGeometry>
        </mxCell>
        <mxCell id="G6aGoi_SDcfZqB_u-QsE-27" value="&lt;b style=&quot;font-size: 27px;&quot;&gt;Entidades&lt;/b&gt;" style="rounded=0;whiteSpace=wrap;html=1;" vertex="1" parent="1">
          <mxGeometry x="-470" y="370" width="380" height="60" as="geometry" />
        </mxCell>
        <mxCell id="G6aGoi_SDcfZqB_u-QsE-28" value="&lt;b&gt;&lt;font style=&quot;font-size: 27px;&quot;&gt;Relacionamentos&lt;/font&gt;&lt;/b&gt;" style="rounded=0;whiteSpace=wrap;html=1;" vertex="1" parent="1">
          <mxGeometry x="-470" y="460" width="380" height="60" as="geometry" />
        </mxCell>
        <mxCell id="G6aGoi_SDcfZqB_u-QsE-29" value="&lt;b&gt;&lt;font style=&quot;font-size: 27px;&quot;&gt;Cardinalidade&lt;/font&gt;&lt;/b&gt;" style="rounded=0;whiteSpace=wrap;html=1;" vertex="1" parent="1">
          <mxGeometry x="-470" y="554.5" width="380" height="60" as="geometry" />
        </mxCell>
      </root>
    </mxGraphModel>
  </diagram>
</mxfile>
